# xmcd CD database file
# Copyright (C) 1997 Ti Kan
#
# Track frame offsets:
#  150
#  12240
#  23792
#  37590
#  52145
#  62182
#  74937
#  91502
#  107937
#  120395
#  135995
#
# Disc length: 2024 seconds
#
# Revision: 1
# Processed by: cddbd v1.4b41PL1 Copyright (c) Steve Scherf et al.
# Submitted via: CDWizzard Release:4.32
#
DISCID=8e07e60b
DTITLE=Larry Gatlin and the Gatlin Brothers Band - Greatest Hits
DYEAR=1900
DGENRE=
TTITLE0=Broken Lady
TTITLE1=Night Time Magic
TTITLE2=Sweet Becky Walker
TTITLE3=I Just Wish You Were Someone I Love
TTITLE4=Delta Dirt
TTITLE5=I Don't Wanna Cry
TTITLE6=Do It Again Tonight
TTITLE7=Bitter They Are, Harder They Fall
TTITLE8=Statues Without Hearts
TTITLE9=The Heart
TTITLE10=Love Is Just A Game
EXTD=
EXTT0=
EXTT1=
EXTT2=
EXTT3=
EXTT4=
EXTT5=
EXTT6=
EXTT7=
EXTT8=
EXTT9=
EXTT10=
PLAYORDER=
